<?xml version="1.0" standalone="no"?>
<!DOCTYPE svg PUBLIC "-//W3C//DTD SVG 20010904//EN"
 "http://www.w3.org/TR/2001/REC-SVG-20010904/DTD/svg10.dtd">
<svg version="1.0" xmlns="http://www.w3.org/2000/svg"
 width="487.000000pt" height="633.000000pt" viewBox="0 0 487.000000 633.000000"
 preserveAspectRatio="xMidYMid meet">
<metadata>
Created by potrace 1.16, written by Peter Selinger 2001-2019
</metadata>
<g transform="translate(0.000000,633.000000) scale(0.100000,-0.100000)"
fill="#000000" stroke="none">
<path d="M0 3165 l0 -3165 149 0 150 0 3 141 c2 78 -1 143 -5 146 -4 3 -3 10
2 17 6 7 8 23 6 37 -11 56 -15 349 -4 349 5 0 7 5 4 10 -18 29 93 -19 160 -69
28 -21 87 -60 133 -86 55 -33 78 -51 70 -57 -10 -6 -10 -10 -1 -16 14 -9 37
-62 34 -79 -1 -7 8 -17 19 -23 11 -6 20 -17 20 -25 0 -7 6 -20 13 -27 6 -7 13
-24 15 -38 1 -13 10 -36 20 -50 9 -14 22 -37 29 -52 7 -16 17 -28 23 -28 5 0
10 -18 10 -39 0 -22 5 -43 10 -46 6 -3 10 -19 10 -36 l0 -29 1599 0 c1591 0
1600 0 1606 20 4 11 16 20 28 21 20 1 20 2 -3 8 -22 6 -19 8 20 14 139 18 233
46 388 114 11 5 12 -11 7 -86 l-8 -91 182 0 181 0 0 3165 0 3165 -2435 0
-2435 0 0 -3165z m2863 1321 c8 -8 24 -12 40 -9 17 4 27 1 27 -7 0 -7 7 -10
14 -7 11 4 13 1 9 -10 -5 -12 -3 -14 6 -8 8 4 17 2 22 -6 8 -12 10 -12 18 0 5
8 7 21 3 29 -3 10 1 9 14 -4 11 -11 29 -27 40 -35 18 -12 50 -92 46 -111 -1
-4 8 -27 20 -50 17 -31 25 -72 32 -160 9 -114 21 -152 28 -87 3 31 8 36 58 57
72 31 102 26 126 -20 15 -29 15 -38 -6 -127 -12 -53 -38 -142 -58 -199 -44
-129 -69 -149 -143 -118 -14 6 -18 -4 -24 -69 -5 -58 -15 -91 -42 -143 -20
-37 -44 -76 -54 -87 -40 -45 -48 -274 -14 -413 3 -12 0 -32 -7 -45 -6 -12 -12
-41 -13 -64 -2 -37 0 -40 11 -25 12 16 13 15 14 -5 0 -12 4 -24 8 -27 12 -7
135 122 164 172 16 27 28 39 33 32 13 -21 -17 -114 -85 -265 -37 -82 -78 -174
-90 -203 -35 -82 -98 -122 -190 -122 -61 0 -67 11 -46 72 11 29 27 70 37 91 9
20 14 37 10 37 -4 0 -34 -22 -66 -50 -103 -85 -207 -164 -252 -191 l-43 -25
-48 46 c-27 26 -71 57 -99 70 -33 15 -63 39 -89 72 -37 46 -39 48 -42 23 -5
-40 -36 -31 -97 31 -65 66 -79 106 -95 262 -6 59 -13 117 -16 130 -5 23 -4 23
18 6 13 -10 52 -75 88 -145 35 -71 65 -127 68 -125 2 2 -20 64 -49 138 l-52
133 -6 163 c-3 89 -4 162 -1 162 3 0 40 -36 82 -79 66 -69 112 -107 178 -146
9 -6 25 -19 35 -29 31 -31 84 -49 101 -35 10 8 37 10 83 6 65 -5 70 -4 97 22
16 15 49 37 73 50 64 33 151 102 195 155 20 25 30 43 22 40 -9 -3 -16 -9 -16
-13 0 -3 -16 -15 -35 -25 -19 -10 -32 -23 -29 -27 3 -5 0 -10 -5 -10 -6 -1
-14 -2 -18 -3 -9 -2 -66 -33 -98 -53 -64 -39 -137 -63 -190 -62 -52 2 -110 16
-133 33 -9 7 -16 6 -21 -3 -6 -9 -14 -10 -27 -3 -74 37 -95 50 -139 89 -74 64
-78 68 -108 102 -16 17 -33 28 -38 25 -5 -3 -8 -2 -7 3 2 4 0 8 -4 8 -11 0
-78 68 -78 80 0 6 -9 29 -20 50 -12 22 -26 70 -32 107 -11 61 -14 68 -39 73
-41 9 -57 34 -79 120 -23 90 -24 99 -9 90 7 -5 8 6 4 32 -3 21 -8 52 -11 70
-2 17 0 34 6 38 6 3 8 10 5 15 -3 5 -1 11 5 15 6 4 8 11 4 16 -3 6 3 13 15 16
11 3 19 9 16 13 -3 4 6 10 20 12 19 4 25 0 27 -16 6 -32 28 103 28 165 0 64
42 162 78 178 12 6 22 15 22 21 0 5 5 10 11 10 5 0 7 -4 4 -10 -3 -6 1 -7 10
-4 9 4 14 13 10 22 -5 13 -3 13 11 2 13 -12 17 -11 26 1 8 11 9 11 5 -3 -7
-19 17 -31 44 -23 13 4 19 1 19 -9 0 -10 6 -13 15 -10 8 4 12 11 8 17 -3 5 -2
8 3 4 5 -3 34 -6 64 -8 30 -1 61 -7 68 -12 14 -11 135 -16 124 -5 -4 3 -32 12
-62 20 -42 10 -55 18 -57 33 -2 11 0 15 3 9 6 -13 44 -7 44 7 0 5 -7 9 -16 9
-9 0 -14 6 -11 13 2 6 10 11 17 9 21 -5 192 -2 235 3 32 5 36 4 22 -5 -9 -6
-22 -8 -28 -5 -6 4 -19 -1 -29 -10 -11 -10 -38 -17 -74 -18 -31 -1 -56 -6 -56
-11 0 -14 202 3 220 19 9 8 46 17 83 21 49 5 67 10 63 19 -10 26 15 33 37 11z"/>
<path d="M2256 3515 c-10 -7 -15 -18 -12 -23 3 -5 -6 -20 -19 -32 -38 -35 -33
-55 8 -34 17 9 35 22 39 28 5 8 12 7 25 -2 10 -6 25 -15 33 -19 8 -4 21 -13
28 -20 15 -14 32 -17 32 -5 0 4 -10 12 -22 17 -12 6 -23 15 -25 21 -2 7 17 8
64 1 38 -5 136 -9 220 -8 94 0 155 -3 158 -10 5 -7 11 -6 20 1 11 9 8 16 -13
37 -15 15 -28 21 -30 15 -5 -15 -40 -15 -81 -1 -18 6 -35 8 -39 5 -3 -4 4 -9
16 -13 52 -13 14 -18 -95 -11 -265 16 -291 21 -278 56 6 16 -5 15 -29 -3z"/>
</g>
</svg>
